<svg width="311" height="100" viewBox="0 0 311 100" fill="none" xmlns="http://www.w3.org/2000/svg">
<g filter="url(#filter0_i_107_58)">
<path d="M161.134 13.5L205.433 12.1402C207.932 12.0635 210 14.0686 210 16.5691C210 19.0162 208.016 21 205.569 21H189.902L90 17.5L161.134 13.5Z" fill="#FF0000"/>
</g>
<g filter="url(#filter1_i_107_58)">
<path d="M4.5 95C4.16667 95 4 94.8333 4 94.5L4.2 25.8C4.2 25.5333 4.33333 25.4 4.6 25.4H36.6C36.9333 25.4 37.1 25.5333 37.1 25.8V37.1C37.1 37.3667 36.9667 37.5 36.7 37.5H16.2V53H36.7C36.9667 53 37.1 53.1667 37.1 53.5L37.2 64.8C37.2 65.0667 37.0333 65.2 36.7 65.2H16.2V94.5C16.2 94.8333 16.0333 95 15.7 95H4.5ZM34.3305 94.5L46.7305 25.8C46.7971 25.5333 46.9638 25.4 47.2305 25.4H61.7305C61.9971 25.4 62.1638 25.5333 62.2305 25.8L74.1305 94.5C74.1971 94.8333 74.0638 95 73.7305 95H62.6305C62.3638 95 62.1971 94.8333 62.1305 94.5L61.0305 87.2H47.4305L46.3305 94.5C46.2638 94.8333 46.0971 95 45.8305 95H34.7305C34.4638 95 34.3305 94.8333 34.3305 94.5ZM49.4305 76.5H59.0305L54.9305 48.4L54.3305 44.7L53.9305 48.4L49.4305 76.5ZM92.9531 96C89.3531 96 86.0531 95.1 83.0531 93.3C80.1198 91.4333 77.7531 89 75.9531 86C74.2198 82.9333 73.3531 79.5667 73.3531 75.9V71.3C73.3531 70.9667 73.5198 70.8 73.8531 70.8H85.0531C85.3198 70.8 85.4531 70.9667 85.4531 71.3V75.9C85.4531 78.1 86.1865 80 87.6531 81.6C89.1198 83.1333 90.8865 83.9 92.9531 83.9C95.0198 83.9 96.7865 83.1 98.2531 81.5C99.7198 79.9 100.453 78.0333 100.453 75.9C100.453 73.4333 98.8531 71.3 95.6531 69.5C94.5865 68.9 92.9198 67.9667 90.6531 66.7C88.3865 65.4333 86.2531 64.2333 84.2531 63.1C80.5865 60.9667 77.8531 58.3 76.0531 55.1C74.3198 51.8333 73.4531 48.1667 73.4531 44.1C73.4531 40.3667 74.3531 37.0333 76.1531 34.1C77.9531 31.1 80.3198 28.7333 83.2531 27C86.2531 25.2667 89.4865 24.4 92.9531 24.4C96.4865 24.4 99.7198 25.3 102.653 27.1C105.653 28.8333 108.02 31.2 109.753 34.2C111.553 37.1333 112.453 40.4333 112.453 44.1V52.3C112.453 52.5667 112.32 52.7 112.053 52.7H100.853C100.586 52.7 100.453 52.5667 100.453 52.3L100.353 44.1C100.353 41.7667 99.6198 39.8667 98.1531 38.4C96.6865 36.9333 94.9531 36.2 92.9531 36.2C90.8865 36.2 89.1198 37 87.6531 38.6C86.1865 40.1333 85.4531 41.9667 85.4531 44.1C85.4531 46.3 85.9198 48.1333 86.8531 49.6C87.7865 51.0667 89.4865 52.4667 91.9531 53.8C92.2865 54 92.9198 54.3667 93.8531 54.9C94.8531 55.3667 95.9198 55.9333 97.0531 56.6C98.1865 57.2 99.1865 57.7333 100.053 58.2C100.986 58.6667 101.553 58.9667 101.753 59.1C105.086 60.9667 107.72 63.2667 109.653 66C111.586 68.6667 112.553 71.9667 112.553 75.9C112.553 79.7 111.653 83.1333 109.853 86.2C108.12 89.2 105.753 91.6 102.753 93.4C99.8198 95.1333 96.5531 96 92.9531 96ZM126.52 95C126.253 95 126.12 94.8333 126.12 94.5V37.5H113.12C112.786 37.5 112.62 37.3333 112.62 37L112.72 25.8C112.72 25.5333 112.853 25.4 113.12 25.4H151.12C151.453 25.4 151.62 25.5333 151.62 25.8V37C151.62 37.3333 151.486 37.5 151.22 37.5H138.12L138.22 94.5C138.22 94.8333 138.086 95 137.82 95H126.52ZM154.459 95C154.192 95 154.059 94.8333 154.059 94.5L154.259 25.8C154.259 25.5333 154.392 25.4 154.659 25.4H173.859C177.659 25.4 181.059 26.3333 184.059 28.2C187.059 30 189.425 32.4 191.159 35.4C192.892 38.4 193.759 41.6667 193.759 45.2C193.759 48.0667 193.092 50.7333 191.759 53.2C190.492 55.6667 188.959 57.6667 187.159 59.2C189.092 61.1333 190.592 63.3667 191.659 65.9C192.725 68.4333 193.259 71.1 193.259 73.9C193.259 77.7667 192.325 81.3 190.459 84.5C188.592 87.7 186.059 90.2667 182.859 92.2C179.725 94.0667 176.225 95 172.359 95H154.459ZM166.259 53H173.859C176.192 53 178.059 52.2 179.459 50.6C180.925 48.9333 181.659 47.1333 181.659 45.2C181.659 43.0667 180.892 41.2333 179.359 39.7C177.825 38.1 175.992 37.3 173.859 37.3H166.259V53ZM166.159 82.8H172.359C174.759 82.8 176.825 81.9333 178.559 80.2C180.292 78.4 181.159 76.3 181.159 73.9C181.159 71.5 180.292 69.4333 178.559 67.7C176.825 65.9667 174.759 65.1 172.359 65.1H166.259L166.159 82.8ZM198.445 95C198.112 95 197.945 94.8333 197.945 94.5L198.045 25.8C198.045 25.5333 198.179 25.4 198.445 25.4H209.645C209.912 25.4 210.045 25.5333 210.045 25.8L210.145 94.5C210.145 94.8333 210.012 95 209.745 95H198.445ZM216.841 95C216.575 95 216.441 94.8333 216.441 94.5L216.641 25.9C216.641 25.5667 216.775 25.4 217.041 25.4H228.241C228.508 25.4 228.641 25.5667 228.641 25.9V49.6L244.341 25.8C244.541 25.5333 244.775 25.4 245.041 25.4H256.541C256.808 25.4 256.875 25.5333 256.741 25.8L239.441 53.4L258.841 94.6C258.975 94.8667 258.808 95 258.341 95H246.141C245.808 95 245.608 94.8667 245.541 94.6L232.041 65.2L228.541 70.7V94.5C228.541 94.8333 228.408 95 228.141 95H216.841ZM261.216 95C260.95 95 260.816 94.8333 260.816 94.5L260.916 25.8C260.916 25.5333 261.05 25.4 261.316 25.4H293.416C293.683 25.4 293.816 25.5667 293.816 25.9V37.1C293.816 37.3667 293.683 37.5 293.416 37.5H272.916V53.1H293.416C293.683 53.1 293.816 53.2333 293.816 53.5L293.916 64.8C293.916 65.0667 293.783 65.2 293.516 65.2H272.916V82.7H293.516C293.783 82.7 293.916 82.8667 293.916 83.2V94.6C293.916 94.8667 293.783 95 293.516 95H261.216Z" fill="#161616"/>
</g>
<defs>
<filter id="filter0_i_107_58" x="90" y="12.1381" width="120" height="12.8619" filterUnits="userSpaceOnUse" color-interpolation-filters="sRGB">
<feFlood flood-opacity="0" result="BackgroundImageFix"/>
<feBlend mode="normal" in="SourceGraphic" in2="BackgroundImageFix" result="shape"/>
<feColorMatrix in="SourceAlpha" type="matrix" values="0 0 0 0 0 0 0 0 0 0 0 0 0 0 0 0 0 0 127 0" result="hardAlpha"/>
<feOffset dy="4"/>
<feGaussianBlur stdDeviation="2"/>
<feComposite in2="hardAlpha" operator="arithmetic" k2="-1" k3="1"/>
<feColorMatrix type="matrix" values="0 0 0 0 0 0 0 0 0 0 0 0 0 0 0 0 0 0 0.25 0"/>
<feBlend mode="normal" in2="shape" result="effect1_innerShadow_107_58"/>
</filter>
<filter id="filter1_i_107_58" x="4" y="24.4" width="289.917" height="75.6" filterUnits="userSpaceOnUse" color-interpolation-filters="sRGB">
<feFlood flood-opacity="0" result="BackgroundImageFix"/>
<feBlend mode="normal" in="SourceGraphic" in2="BackgroundImageFix" result="shape"/>
<feColorMatrix in="SourceAlpha" type="matrix" values="0 0 0 0 0 0 0 0 0 0 0 0 0 0 0 0 0 0 127 0" result="hardAlpha"/>
<feOffset dy="4"/>
<feGaussianBlur stdDeviation="2"/>
<feComposite in2="hardAlpha" operator="arithmetic" k2="-1" k3="1"/>
<feColorMatrix type="matrix" values="0 0 0 0 0 0 0 0 0 0 0 0 0 0 0 0 0 0 0.25 0"/>
<feBlend mode="normal" in2="shape" result="effect1_innerShadow_107_58"/>
</filter>
</defs>
</svg>
