<svg width="60" height="60" viewBox="0 0 60 60" fill="none" xmlns="http://www.w3.org/2000/svg">
<rect width="60" height="60" fill="white"/>
<path d="M14.7423 45.6C11.9748 45.6 9.62585 44.6381 7.69543 42.7144C5.76501 40.7906 4.7998 38.4619 4.7998 35.7281C4.7998 32.9944 5.77355 30.6741 7.72105 28.7672C9.66855 26.8603 12.0261 25.9069 14.7936 25.9069C17.2194 25.9069 19.3463 26.6747 21.1742 28.2103C23.0021 29.746 24.104 31.695 24.4798 34.0575H27.0936L22.8911 22.3125H19.1498V19.275H28.7848V22.3125H26.1198L27.4523 25.9069H38.8298L35.1911 16.2375H29.8098V13.2H34.8836C35.7036 13.2 36.3954 13.3856 36.9592 13.7569C37.5229 14.1281 37.9415 14.685 38.2148 15.4275L42.1098 25.9069H44.0573C46.8248 25.9069 49.1738 26.8519 51.1042 28.7419C53.0346 30.6319 53.9998 32.9269 53.9998 35.6269C53.9998 38.3606 53.0346 40.7063 51.1042 42.6638C49.1738 44.6213 46.8248 45.6 44.0573 45.6C41.5973 45.6 39.4448 44.79 37.5998 43.17C35.7548 41.55 34.6273 39.525 34.2173 37.095H24.4798C24.104 39.525 23.0021 41.55 21.1742 43.17C19.3463 44.79 17.2023 45.6 14.7423 45.6ZM14.7423 42.5625C16.3823 42.5625 17.8088 42.0394 19.0217 40.9931C20.2346 39.9469 21.0461 38.6475 21.4561 37.095H15.3573V34.0575H21.4561C21.0461 32.5388 20.2261 31.3069 18.9961 30.3619C17.7661 29.4169 16.3652 28.9444 14.7936 28.9444C12.8802 28.9444 11.2488 29.6025 9.89918 30.9188C8.5496 32.235 7.8748 33.8381 7.8748 35.7281C7.8748 37.6181 8.54105 39.2297 9.87355 40.5628C11.2061 41.896 12.829 42.5625 14.7423 42.5625ZM30.3736 34.0575H34.2686C34.4052 33.2813 34.67 32.4206 35.0629 31.4756C35.4558 30.5306 35.994 29.6869 36.6773 28.9444H28.5286L30.3736 34.0575ZM44.0573 42.5625C45.9706 42.5625 47.5936 41.896 48.9261 40.5628C50.2586 39.2297 50.9248 37.6181 50.9248 35.7281C50.9248 33.8381 50.2586 32.235 48.9261 30.9188C47.5936 29.6025 45.9706 28.9444 44.0573 28.9444H43.2373L45.2361 34.665L42.3661 35.6269L40.1623 29.9569C39.1715 30.5306 38.4283 31.3406 37.9329 32.3869C37.4375 33.4331 37.1898 34.5469 37.1898 35.7281C37.1898 37.6181 37.8561 39.2297 39.1886 40.5628C40.5211 41.896 42.144 42.5625 44.0573 42.5625Z" fill="#FF0000"/>
</svg>
