<svg width="60" height="60" viewBox="0 0 60 60" fill="none" xmlns="http://www.w3.org/2000/svg">
<rect width="60" height="60" fill="white"/>
<path d="M30.0002 7.19995C31.1695 7.19995 32.1332 8.08012 32.2649 9.21406L32.2802 9.47995L32.281 12.4758C40.2166 13.4985 46.503 19.7855 47.5247 27.7215L50.5202 27.72C51.7794 27.72 52.8002 28.7407 52.8002 30C52.8002 31.1692 51.92 32.1329 50.7861 32.2646L50.5202 32.28L47.5244 32.2807C46.5018 40.2156 40.2158 46.5015 32.281 47.5241L32.2802 50.52C32.2802 51.7792 31.2594 52.7999 30.0002 52.7999C28.8309 52.7999 27.8672 51.9198 27.7355 50.7858L27.7202 50.52L27.7217 47.5244C19.7858 46.5028 13.4987 40.2164 12.476 32.2807L9.4802 32.28C8.22099 32.28 7.2002 31.2592 7.2002 30C7.2002 28.8307 8.08037 27.867 9.2143 27.7353L9.4802 27.72L12.4757 27.7215C13.4975 19.7848 19.785 13.4972 27.7217 12.4755L27.7202 9.47995C27.7202 8.22074 28.741 7.19995 30.0002 7.19995ZM30.0002 16.89C22.7597 16.89 16.8902 22.7595 16.8902 30C16.8902 37.2404 22.7597 43.11 30.0002 43.11C37.2406 43.11 43.1102 37.2404 43.1102 30C43.1102 22.7595 37.2406 16.89 30.0002 16.89ZM30.0002 20.88C35.037 20.88 39.1202 24.9631 39.1202 30C39.1202 35.0368 35.037 39.12 30.0002 39.12C24.9634 39.12 20.8802 35.0368 20.8802 30C20.8802 24.9631 24.9634 20.88 30.0002 20.88Z" fill="#FF0000"/>
</svg>
