<svg width="60" height="60" viewBox="0 0 60 60" fill="none" xmlns="http://www.w3.org/2000/svg">
<rect width="60" height="60" fill="white"/>
<path d="M25.62 39.24C26.54 40.16 27.87 40.59 29.61 40.53C31.35 40.47 32.62 39.82 33.42 38.58L46.38 18.24L26.28 31.38C25.08 32.18 24.44 33.46 24.36 35.22C24.28 36.98 24.7 38.32 25.62 39.24ZM29.88 10.8C32.16 10.8 34.54 11.17 37.02 11.91C39.5 12.65 41.88 13.92 44.16 15.72L41.04 17.94C39.24 16.74 37.31 15.85 35.25 15.27C33.19 14.69 31.4 14.4 29.88 14.4C24.28 14.4 19.5 16.4 15.54 20.4C11.58 24.4 9.6 29.26 9.6 34.98C9.6 36.78 9.85 38.6 10.35 40.44C10.85 42.28 11.56 43.98 12.48 45.54H47.22C48.1 44.1 48.8 42.42 49.32 40.5C49.84 38.58 50.1 36.7 50.1 34.86C50.1 33.18 49.85 31.37 49.35 29.43C48.85 27.49 47.96 25.7 46.68 24.06L49.02 20.94C50.54 23.18 51.68 25.43 52.44 27.69C53.2 29.95 53.62 32.22 53.7 34.5C53.78 36.9 53.54 39.16 52.98 41.28C52.42 43.4 51.6 45.36 50.52 47.16C50.04 48.08 49.53 48.64 48.99 48.84C48.45 49.04 47.78 49.14 46.98 49.14H12.72C12.04 49.14 11.37 48.97 10.71 48.63C10.05 48.29 9.56 47.8 9.24 47.16C8.2 45.24 7.4 43.29 6.84 41.31C6.28 39.33 6 37.22 6 34.98C6 31.66 6.63 28.53 7.89 25.59C9.15 22.65 10.86 20.09 13.02 17.91C15.18 15.73 17.71 14 20.61 12.72C23.51 11.44 26.6 10.8 29.88 10.8Z" fill="#FF0000"/>
</svg>
