<svg width="36" height="36" viewBox="0 0 36 36" fill="none" xmlns="http://www.w3.org/2000/svg">
<g clip-path="url(#clip0_113_254)">
<path d="M33 0H3.00002C1.34578 0 0 1.34578 0 3.00002V33C0 34.6542 1.34578 36 3.00002 36H16.8V24H12V16.8H16.8V13.8C16.8 9.75776 19.941 6.33298 23.9508 6.00173L30.6 5.99991V13.1999H24.6C24.2694 13.1999 24 13.4693 24 13.7999V16.7999H30V23.9999H24V36H33C34.6542 36 36 34.6542 36 33V3.00002C36 1.34578 34.6542 0 33 0Z" fill="white"/>
<path d="M28.8 18H22.8V13.8C22.8 12.8076 23.6076 12 24.6 12H29.4V7.19995H24C20.6574 7.47776 18 10.3776 18 13.8V18H13.2V22.8H18V36H22.8V22.8H28.8V18Z" fill="white"/>
</g>
<defs>
<clipPath id="clip0_113_254">
<rect width="36" height="36" fill="white"/>
</clipPath>
</defs>
</svg>
