<svg width="36" height="36" viewBox="0 0 36 36" fill="none" xmlns="http://www.w3.org/2000/svg">
<g clip-path="url(#clip0_113_231)">
<rect width="36" height="36" fill="white"/>
<path d="M18.0001 9.59998C13.3681 9.59998 9.6001 13.368 9.6001 18C9.6001 22.632 13.3681 26.4 18.0001 26.4C22.6321 26.4 26.4001 22.632 26.4001 18C26.4001 13.368 22.6321 9.59998 18.0001 9.59998ZM18.0001 24.6C14.3611 24.6 11.4001 21.639 11.4001 18C11.4001 14.361 14.3611 11.4 18.0001 11.4C21.6391 11.4 24.6001 14.361 24.6001 18C24.6001 21.639 21.6391 24.6 18.0001 24.6Z" fill="#292929"/>
<path d="M18.0001 12.6C15.0229 12.6 12.6001 15.0228 12.6001 18C12.6001 20.9771 15.0229 23.4 18.0001 23.4C20.9773 23.4 23.4001 20.9771 23.4001 18C23.4001 15.0228 20.9773 12.6 18.0001 12.6Z" fill="#292929"/>
<path d="M25.75 4.80005H10.2496C7.24478 4.80005 4.7998 7.24503 4.7998 10.2498V25.7502C4.7998 28.755 7.24478 31.2 10.2496 31.2H25.75C28.7548 31.2 31.1998 28.755 31.1998 25.7502V10.2498C31.1998 7.24503 28.7548 4.80005 25.75 4.80005ZM17.9998 27.6C12.7066 27.6 8.39981 23.2932 8.39981 18C8.39981 12.7068 12.7066 8.40005 17.9998 8.40005C23.293 8.40005 27.5998 12.7068 27.5998 18C27.5998 23.2932 23.293 27.6 17.9998 27.6ZM27.5998 10.2C26.6055 10.2 25.7998 9.39427 25.7998 8.40005C25.7998 7.40583 26.6055 6.60005 27.5998 6.60005C28.594 6.60005 29.3998 7.40583 29.3998 8.40005C29.3998 9.39427 28.594 10.2 27.5998 10.2Z" fill="#292929"/>
<path d="M25.7502 0H10.2498C4.59837 0 0 4.59837 0 10.2498V25.7502C0 31.4016 4.59837 36 10.2498 36H25.7502C31.4016 36 36 31.4016 36 25.7502V10.2498C36 4.59837 31.4016 0 25.7502 0ZM32.4 25.7502C32.4 29.4168 29.4168 32.4 25.7502 32.4H10.2498C6.58322 32.4 3.6 29.4168 3.6 25.7502V10.2498C3.6 6.58322 6.58322 3.6 10.2498 3.6H25.7502C29.4168 3.6 32.4 6.58322 32.4 10.2498V25.7502Z" fill="white"/>
</g>
<defs>
<clipPath id="clip0_113_231">
<rect width="36" height="36" fill="white"/>
</clipPath>
</defs>
</svg>
