<svg width="36" height="36" viewBox="0 0 36 36" fill="none" xmlns="http://www.w3.org/2000/svg">
<rect width="36" height="36" fill="white"/>
<path d="M7.0172 3H7.01369C5.94685 3 4.94077 3.41558 4.18152 4.16976C3.41976 4.92599 3 5.9294 3 6.99526C2.99947 8.08459 3.42823 9.1055 4.20495 9.8687C4.95824 10.6079 5.9857 11.023 6.9818 10.999C7.01072 10.9995 7.03963 11 7.06902 11C8.06757 11 9.05618 10.5924 9.79253 9.87321C10.5687 9.11551 10.9975 8.09858 11 7.00972C11.0025 5.94485 10.5867 4.93992 9.83044 4.17924C9.07464 3.41956 8.07557 3.001 7.0172 3Z" fill="#292929"/>
<path d="M8.5 12H4.45752C3.65402 12 3 12.6582 3 13.4666V30.5402C3 31.3316 3.68701 32 4.5 32H8.5C9.31299 32 10 31.3448 10 30.57V13.4637C10 12.6704 9.31305 12 8.5 12Z" fill="#292929"/>
<path d="M25.4118 11H24.4109C22.5665 11 20.7971 11.827 19.65 13.193V12.5C19.65 12.0045 19.1702 11.5 18.7 11.5H13.95C13.5107 11.5 13 11.91 13 12.4385V31.0949C13 31.6254 13.5006 31.9954 13.95 31.9959L19.175 31.9974C19.6244 31.9974 20.125 31.6274 20.125 31.0964V20.318C20.125 18.692 21.2703 17.4045 22.7323 17.387C23.4757 17.3695 24.1782 17.678 24.704 18.2325C25.1386 18.69 25.35 19.358 25.35 20.275V31C25.35 31.4955 25.8298 32 26.3 32H31.05C31.5202 32 32 31.4955 32 31V18.095C32.0001 14.1165 29.1059 11 25.4118 11Z" fill="#292929"/>
</svg>
