<svg width="36" height="36" viewBox="0 0 36 36" fill="none" xmlns="http://www.w3.org/2000/svg">
<path d="M34.0448 0H1.95516C0.875541 0 0 0.875541 0 1.95516V34.0448C0 35.1244 0.875541 36 1.95516 36H34.0448C35.1245 36 36 35.1245 36 34.0448V1.95516C36 0.875094 35.1248 0 34.0448 0ZM33.0809 9.63428C32.8013 9.95138 32.5077 10.2544 32.2003 10.543C31.5192 11.182 30.9096 11.8065 30.9138 12.0372C30.9161 12.1599 30.9173 12.2992 30.9173 12.4544C30.9173 14.1773 30.6655 15.8967 30.1619 17.6129C29.6583 19.3288 28.893 20.9754 27.8661 22.5521C26.8389 24.1291 25.6165 25.5235 24.1987 26.7361C22.7808 27.9491 21.0712 28.9165 19.0702 29.6383C17.0694 30.3606 14.9289 30.7215 12.6499 30.7215C9.63543 30.7215 6.83603 30.045 4.25132 28.6913C3.42389 28.258 3.1365 27.8803 3.56465 27.9014C3.81141 27.9134 4.07025 27.9193 4.34084 27.9193C6.7453 27.9193 8.93821 27.325 10.9203 26.1355C11.7212 25.655 11.5409 25.1885 10.6427 24.9326C9.90404 24.7222 9.21468 24.3758 8.57453 23.8941C7.94536 23.4205 7.42923 22.8723 7.02567 22.2495C6.51771 21.4654 6.57796 20.7678 6.91303 20.796C7.12496 20.814 7.32751 20.823 7.52111 20.823C7.80658 20.823 8.09085 20.8046 8.37313 20.7682C8.84084 20.7076 8.45096 20.4761 7.61414 20.0616C6.82038 19.6687 6.12355 19.1105 5.52371 18.388C4.54965 17.2157 4.06284 15.8537 4.06284 14.3037C4.06284 14.3037 4.06284 14.2857 4.06284 14.2638C4.06284 14.2419 4.65565 14.5785 5.46467 14.8057C6.27376 15.0329 6.36251 14.6622 5.78146 14.0241C5.43579 13.6447 5.13466 13.2208 4.87774 12.7528C4.36084 11.812 4.10271 10.7918 4.10271 9.69184C4.10271 9.10843 4.17586 8.54609 4.32167 8.00574C4.5653 7.104 5.44902 7.04695 6.10163 7.71439C7.46788 9.11194 9.04453 10.2714 10.8308 11.1927C12.6315 12.1217 14.5323 12.7278 16.5324 13.0102C17.4572 13.1408 18.1419 12.846 18.0973 12.4389C18.07 12.189 18.0563 11.9423 18.0563 11.6995C18.0563 9.92378 18.6823 8.40975 19.9348 7.15723C21.1868 5.90516 22.7009 5.27912 24.4766 5.27912C25.7444 5.27912 26.8764 5.5947 27.872 6.22623C28.6607 6.72633 29.9166 7.17486 30.8019 6.87769C31.1178 6.77169 31.4291 6.65323 31.7357 6.52225C32.5944 6.15543 33.0328 6.49797 32.5275 7.28361C32.3023 7.63394 32.0427 7.95853 31.7494 8.25653C31.0944 8.92205 31.1773 9.22395 32.083 8.99521C32.2311 8.9577 32.3794 8.91738 32.5275 8.87438C33.4246 8.61248 33.6983 8.93349 33.0809 9.63428Z" fill="white"/>
</svg>
