<svg width="36" height="36" viewBox="0 0 36 36" fill="none" xmlns="http://www.w3.org/2000/svg">
<g clip-path="url(#clip0_113_152)">
<path d="M18.0163 7.52979C12.2595 7.52979 7.57593 12.2133 7.57593 17.9702C7.57593 19.9761 8.14603 21.924 9.22445 23.6033L9.48363 24.0069L8.46816 27.6136L12.1997 26.653L12.5845 26.888C14.2161 27.8841 16.0944 28.4106 18.0163 28.4106C23.7732 28.4106 28.4566 23.727 28.4566 17.9702C28.4566 12.2133 23.7732 7.52979 18.0163 7.52979ZM24.4185 21.179L24.2882 21.7874C24.1413 22.4739 23.7336 23.0811 23.1422 23.4594C22.3954 23.9371 21.4275 24.1716 20.1973 23.8237C16.3793 22.7441 14.22 20.2163 13.0615 18.6364C11.9029 17.0565 11.4553 15.4767 11.7449 14.1864C11.9392 13.3211 12.5716 12.6572 12.9671 12.3137C13.1609 12.1454 13.4122 12.0598 13.6684 12.0738L14.4843 12.1182C14.6449 12.127 14.7867 12.2262 14.8499 12.3742L16.0384 15.1548C16.1019 15.3034 16.0751 15.4752 15.9695 15.5974L14.935 16.7941C14.8511 16.8911 14.8365 17.0294 14.8956 17.1432C16.2581 19.7677 18.7412 20.8076 19.4825 21.0682C19.6088 21.1126 19.7487 21.0706 19.8306 20.9645L20.913 19.5613C21.0334 19.4052 21.2457 19.353 21.4247 19.4356L24.182 20.7065C24.3617 20.7894 24.4599 20.9856 24.4185 21.179Z" fill="white"/>
<path d="M0 0V36H36V0H0ZM18.0162 30.5434C15.856 30.5434 13.7407 29.9905 11.8694 28.9405L5.41061 30.6031L7.174 24.3401C6.04004 22.4137 5.443 20.2218 5.443 17.9702C5.443 11.0373 11.0833 5.39695 18.0162 5.39695C24.9491 5.39695 30.5894 11.0373 30.5894 17.9702C30.5894 24.9031 24.9491 30.5434 18.0162 30.5434Z" fill="white"/>
</g>
<defs>
<clipPath id="clip0_113_152">
<rect width="36" height="36" fill="white"/>
</clipPath>
</defs>
</svg>
