<svg width="36" height="36" viewBox="0 0 36 36" fill="none" xmlns="http://www.w3.org/2000/svg">
<path d="M35.3779 5.79103C34.9372 3.04422 33.3712 1.0177 31.486 0.7154C27.0218 0.000440323 22.5034 -0.00329157 18.0058 0.000440516C13.5074 -0.00329157 8.9882 0.000440323 4.52402 0.7154C2.63994 1.0177 1.07508 3.04422 0.634343 5.79103C0.00706067 9.70278 0 13.9728 0 18.0003C0 22.0277 0 26.2972 0.627283 30.2084C1.06727 32.9547 2.63251 34.9812 4.5177 35.2841C8.98151 35.9996 13.5003 36.0033 17.9987 35.9996C22.4978 36.0033 27.0155 35.9996 31.479 35.2841C33.363 34.9818 34.9294 32.9552 35.3701 30.2084C35.9978 26.2967 36 22.0272 36 18.0003C36 13.9728 36.0052 9.70278 35.3779 5.79103ZM13.3543 26.0168C13.3543 20.3035 13.3543 14.6499 13.3543 8.93611C17.1696 11.7922 20.9597 14.6291 24.7992 17.5028C20.9716 20.3509 17.1797 23.1708 13.3543 26.0168Z" fill="white"/>
</svg>
